<svg width="195" height="62" viewBox="0 0 195 62" fill="none" xmlns="http://www.w3.org/2000/svg">
<path d="M33.4198 23.29C33.3251 23.0676 33.1679 22.8775 32.9674 22.7426C32.7668 22.6077 32.5314 22.5339 32.2898 22.53H28.2898C28.1847 22.524 28.0798 22.5437 27.984 22.5872C27.8882 22.6308 27.8044 22.6969 27.7398 22.78C27.6863 22.8746 27.6582 22.9814 27.6582 23.09C27.6582 23.1986 27.6863 23.3054 27.7398 23.4L30.4698 28.13L26.1698 35.72C26.1133 35.8135 26.0835 35.9207 26.0835 36.03C26.0835 36.1393 26.1133 36.2465 26.1698 36.34C26.2234 36.429 26.3 36.5019 26.3915 36.5511C26.483 36.6004 26.586 36.6242 26.6898 36.62H30.6898C30.9295 36.6125 31.1617 36.5345 31.3573 36.3958C31.553 36.2571 31.7034 36.0637 31.7898 35.84L36.1498 28.13L33.4198 23.29ZM49.8298 17.88C49.8814 17.7848 49.9085 17.6783 49.9085 17.57C49.9085 17.4617 49.8814 17.3552 49.8298 17.26C49.7707 17.1753 49.691 17.1071 49.5983 17.0616C49.5056 17.0161 49.4029 16.9949 49.2998 17H45.2198C44.9837 17.0067 44.7549 17.0835 44.5626 17.2206C44.3702 17.3577 44.2231 17.549 44.1398 17.77C44.1398 17.77 35.4398 33.2 35.1398 33.7L40.8798 44.23C40.9733 44.452 41.1286 44.6425 41.3271 44.779C41.5256 44.9154 41.759 44.9921 41.9998 45H45.9998C46.1048 45.0088 46.2103 44.9894 46.3053 44.9437C46.4002 44.8979 46.4812 44.8276 46.5398 44.74C46.5942 44.6457 46.6228 44.5388 46.6228 44.43C46.6228 44.3212 46.5942 44.2143 46.5398 44.12L40.8498 33.72L49.8298 17.88Z" fill="#044F48"/>
<path d="M57.16 37.5H54.04L58.98 24.1H63.34L68.28 37.5H65.02L63.94 34.52H58.26L57.16 37.5ZM60 29.76L59.24 31.84H62.96L62.2 29.76L61.22 26.74H61.02L60 29.76ZM72.8072 37.5H69.8072V29.92H68.3472V27.44H69.8272C70.0072 25.32 71.4272 24.06 74.1072 24.06C74.4272 24.06 74.7272 24.06 75.0472 24.1V26.34H73.8072C73.0472 26.34 72.6872 26.58 72.6872 27.26V27.44H75.0472V29.92H72.8072V37.5ZM79.4812 37.5H76.5012V27.44H79.2812V29.06H79.4012C79.9012 28.04 80.8012 27.24 82.2212 27.24C84.3212 27.24 85.1012 28.8 85.1012 30.82V31.74H82.1212V31.2C82.1212 30.12 81.7812 29.78 80.8412 29.78C79.9212 29.78 79.4812 30.1 79.4812 31.2V37.5ZM89.3892 26.3H86.4492L86.4092 24.1H89.3892V26.3ZM89.4492 37.5H86.4492V27.44H89.4492V37.5ZM94.5 37.5H91.52V27.44H94.3V29.2H94.42C94.96 28.06 96 27.24 97.72 27.24C99.44 27.24 100.48 28.02 100.98 29.2H101.08C101.64 28.1 102.64 27.24 104.5 27.24C107.1 27.24 108.16 28.98 108.16 31.12V37.5H105.16V31.72C105.16 30.32 104.74 29.82 103.28 29.82C101.92 29.82 101.34 30.26 101.34 31.72V37.5H98.34V31.72C98.34 30.32 97.9 29.82 96.46 29.82C95.1 29.82 94.5 30.26 94.5 31.68V37.5ZM114.959 37.7C111.499 37.7 109.919 35.68 109.919 32.5C109.919 29.28 111.839 27.24 114.979 27.24C117.999 27.24 119.779 29.04 119.779 31.66C119.779 32.22 119.699 32.8 119.639 33.14H112.739C112.799 34.54 113.359 35.1 114.999 35.1C116.199 35.1 116.719 34.84 116.719 34.22V34.1H119.679V34.3C119.679 36.44 117.839 37.7 114.959 37.7ZM114.879 29.7C113.439 29.7 112.879 30.26 112.759 31.32H116.899C116.959 30.28 116.279 29.7 114.879 29.7ZM124.597 37.5H121.617V27.44H124.397V29.06H124.517C125.017 28.04 125.917 27.24 127.337 27.24C129.437 27.24 130.217 28.8 130.217 30.82V31.74H127.237V31.2C127.237 30.12 126.897 29.78 125.957 29.78C125.037 29.78 124.597 30.1 124.597 31.2V37.5ZM136.542 37.7C133.222 37.7 131.442 35.68 131.442 32.5C131.442 29.28 133.342 27.24 136.702 27.24C139.382 27.24 141.342 28.88 141.342 31.36V31.6H138.342V31.44C138.342 30.3 137.702 29.92 136.462 29.92C135.022 29.92 134.402 30.6 134.402 32.48C134.402 34.34 135.022 35.02 136.462 35.02C137.702 35.02 138.342 34.64 138.342 33.5V33.34H141.342V33.58C141.342 36.06 139.322 37.7 136.542 37.7ZM145.959 37.7C144.179 37.7 142.799 36.76 142.799 34.94C142.799 33.38 143.919 32.42 145.999 32.1L149.439 31.58V31.26C149.439 30.08 148.799 29.86 147.619 29.86C146.399 29.86 145.919 30.2 145.919 31.22V31.44H143.059V31.22C143.059 28.82 144.919 27.24 147.759 27.24C150.719 27.24 152.279 28.86 152.279 31.54V37.5H149.499V36.14H149.379C148.839 36.88 147.819 37.7 145.959 37.7ZM145.659 34.7C145.659 35.24 146.079 35.42 146.959 35.42C148.179 35.42 149.439 35.1 149.439 33.54L146.559 33.98C145.939 34.08 145.659 34.28 145.659 34.7ZM159.019 37.54C156.399 37.54 155.139 36.58 155.139 34.2V29.92H153.539V27.44H155.219L155.779 25.1H158.139V27.44H160.979V29.92H158.139V33.86C158.139 34.74 158.439 34.84 159.739 34.84H160.979V37.34C160.499 37.44 159.719 37.54 159.019 37.54ZM167.294 37.7C164.054 37.7 162.134 35.66 162.134 32.48C162.134 29.28 164.054 27.24 167.294 27.24C170.514 27.24 172.394 29.28 172.394 32.48C172.394 35.66 170.514 37.7 167.294 37.7ZM167.294 35.06C168.914 35.06 169.474 34.42 169.474 32.48C169.474 30.52 168.914 29.88 167.294 29.88C165.654 29.88 165.094 30.52 165.094 32.48C165.094 34.42 165.654 35.06 167.294 35.06Z" fill="#044F48"/>
</svg>
